PathFileType  4	(X/Y/Z) C:\Users\15086\Documents\GitHub\mocap-processing\BertecTesting2023-09-14\
DataRate	CameraRate	NumFrames	NumMarkers	Units	OrigDataRate	OrigDataStartFrame	OrigNumFrames
  200.0		  200.0		   26		     10		 mm	  200.0	      951	   1900
Frame#	Time	r_calc			r_toe			r_meta			r_ankle			r_mankle			l_calc			l_toe			l_meta			l_ankle			l_mankle			
		X1	Y1	Z1	X2	Y2	Z2	X3	Y3	Z3	X4	Y4	Z4	X5	Y5	Z5	X6	Y6	Z6	X7	Y7	Z7	X8	Y8	Z8	X9	Y9	Z9	X10	Y10	Z10	

951	4.75000	386.229	679.745	-216.165	276.173	493.548	-187.025	284.242	539.599	-140.486	397.088	608.258	-159.739	391.982	585.094	-241.319	1193.038	101.648	-343.468	1394.582	167.097	-379.141	1353.717	117.518	-415.391	1227.983	156.630	-410.935	1255.815	187.630	-334.137
952	4.75500	404.905	694.604	-221.707	288.599	513.290	-185.842	298.440	560.731	-140.565	413.488	624.388	-161.713	407.250	598.310	-242.859	1183.328	97.024	-344.727	1385.508	159.787	-382.359	1343.360	111.510	-418.430	1218.068	152.011	-411.740	1247.255	182.466	-335.285
953	4.76000	424.788	706.682	-225.188	303.007	531.129	-185.093	314.595	579.875	-140.933	431.070	638.602	-164.167	424.354	611.082	-244.625	1170.803	92.170	-345.343	1374.138	151.189	-385.406	1330.182	104.299	-421.283	1205.973	147.217	-412.491	1236.570	176.292	-336.158
954	4.76500	445.918	717.799	-229.232	318.702	547.044	-184.707	331.729	596.847	-141.864	449.653	651.103	-166.491	442.362	621.213	-246.442	1156.288	87.254	-345.572	1360.282	141.475	-388.145	1314.447	96.163	-423.544	1191.564	142.006	-413.323	1223.944	169.834	-336.580
955	4.77000	467.353	727.293	-233.493	335.456	561.189	-184.788	350.372	611.452	-142.658	469.480	661.687	-168.958	461.180	630.654	-248.876	1139.343	82.512	-345.808	1344.638	130.864	-390.069	1296.883	87.295	-425.276	1175.945	136.585	-413.043	1209.382	162.807	-336.890
956	4.77500	489.216	735.077	-237.512	353.129	573.464	-185.355	370.033	624.035	-144.226	489.672	670.311	-171.398	480.579	637.991	-251.000	1120.524	77.582	-345.715	1327.090	119.210	-392.012	1277.566	77.864	-426.443	1158.555	130.444	-412.683	1193.061	155.932	-337.209
957	4.78000	511.435	741.588	-241.253	371.549	583.704	-186.381	390.081	634.129	-145.914	510.403	677.282	-174.016	500.365	643.940	-253.115	1099.898	73.173	-345.615	1307.795	107.324	-392.316	1256.326	67.398	-426.540	1139.426	124.457	-412.820	1175.285	148.634	-336.689
958	4.78500	533.412	746.217	-243.974	390.543	591.743	-187.837	410.443	641.937	-147.790	531.190	682.183	-176.168	520.805	648.907	-255.402	1077.843	68.690	-345.482	1287.067	94.723	-391.894	1234.113	56.867	-425.804	1119.618	118.542	-412.866	1156.010	141.164	-337.036
959	4.79000	554.985	749.641	-247.745	409.938	597.415	-189.696	431.021	647.481	-149.635	551.758	685.429	-178.871	541.088	651.937	-257.272	1054.630	64.858	-346.662	1265.605	81.866	-390.595	1211.429	46.373	-424.607	1099.208	112.457	-412.713	1136.024	133.892	-336.787
960	4.79500	576.157	750.878	-248.622	429.579	600.593	-191.915	451.575	650.612	-151.273	572.542	687.239	-180.466	561.982	653.506	-259.215	1030.622	62.541	-345.394	1243.479	69.435	-386.058	1188.054	41.619	-425.539	1078.863	106.169	-412.695	1114.862	126.734	-336.076
961	4.80000	596.893	751.480	-250.839	449.376	601.306	-194.390	471.832	651.565	-153.036	592.739	687.337	-182.067	582.670	653.887	-261.024	1005.091	60.093	-344.202	1219.419	60.629	-378.446	1160.999	44.147	-422.573	1058.367	100.329	-410.677	1090.431	120.477	-331.963
962	4.80500	616.478	750.541	-252.249	469.257	599.620	-197.002	491.654	649.936	-155.477	612.457	685.914	-183.502	603.053	652.294	-262.659	974.617	53.706	-342.516	1189.622	59.157	-374.454	1132.497	44.944	-420.585	1034.444	98.284	-404.085	1060.567	115.831	-323.492
963	4.81000	635.198	748.652	-253.603	489.152	595.603	-199.634	511.175	646.164	-157.594	631.472	683.390	-185.587	623.422	649.814	-264.271	943.854	47.428	-334.508	1158.948	58.326	-373.930	1101.348	45.661	-419.264	1004.466	98.921	-396.610	1029.683	110.166	-316.372
964	4.81500	652.629	745.568	-253.731	508.987	589.322	-202.166	530.218	640.291	-159.457	649.955	679.489	-186.049	642.943	646.016	-265.740	916.309	49.362	-331.918	1132.006	56.821	-370.647	1073.140	46.017	-415.917	973.563	99.280	-389.079	1004.384	108.220	-310.497
965	4.82000	668.069	741.559	-254.671	528.692	580.843	-204.480	548.406	632.232	-161.014	667.149	674.333	-187.762	661.985	641.087	-267.211	887.733	49.080	-326.864	1102.973	56.586	-368.712	1043.617	46.648	-413.559	947.616	99.923	-384.322	980.715	108.900	-305.274
966	4.82500	681.242	736.211	-255.640	548.193	570.235	-206.457	565.366	621.844	-163.418	683.214	668.078	-188.926	679.699	634.865	-268.520	859.650	50.891	-324.024	1074.049	56.069	-367.725	1014.048	46.709	-412.120	922.580	101.391	-382.182	953.928	109.349	-302.056
967	4.83000	692.380	729.733	-256.426	567.419	557.564	-207.979	581.637	609.343	-165.618	697.411	660.783	-190.067	696.042	627.434	-270.061	830.591	52.192	-323.213	1044.887	55.604	-367.094	984.715	46.963	-411.370	894.793	102.626	-381.281	925.819	110.016	-300.338
968	4.83500	700.902	721.854	-257.165	586.298	542.898	-208.928	596.927	595.126	-167.003	709.580	652.701	-191.826	711.181	618.528	-271.143	801.694	53.598	-323.016	1015.524	55.407	-367.466	955.253	46.990	-411.563	865.923	104.463	-381.245	897.609	111.261	-300.278
969	4.84000	708.161	713.400	-258.427	604.784	526.259	-209.558	611.326	578.730	-168.389	720.557	643.265	-191.783	724.816	608.979	-271.430	772.247	55.308	-324.550	985.849	54.956	-368.527	925.720	46.794	-412.575	836.853	106.067	-382.550	869.271	112.616	-301.674
970	4.84500	712.883	701.754	-259.060	623.209	507.699	-210.902	625.978	560.187	-170.224	730.160	632.353	-190.950	737.085	598.989	-272.440	742.372	57.331	-326.974	955.878	54.471	-369.645	895.980	46.563	-414.140	808.804	107.380	-385.290	840.100	114.034	-304.073
971	4.85000	716.557	688.151	-259.009	642.684	487.835	-211.929	640.893	539.844	-171.858	738.946	619.709	-192.134	748.605	588.424	-273.551	712.569	59.469	-329.501	925.856	54.172	-370.913	866.256	46.492	-415.563	781.054	107.963	-388.571	810.806	115.041	-305.892
972	4.85500	719.641	672.515	-259.312	663.339	466.799	-212.797	656.583	518.285	-172.463	747.330	606.120	-193.605	759.621	576.563	-274.550	682.484	63.023	-331.951	895.524	53.700	-371.696	836.358	46.553	-416.500	751.920	109.718	-390.862	781.637	116.385	-307.336
973	4.86000	722.609	655.286	-259.527	685.462	444.981	-214.320	673.745	495.367	-173.471	755.959	591.164	-193.839	770.944	563.397	-275.299	653.149	66.951	-333.288	865.446	53.630	-371.360	806.161	46.443	-416.991	725.460	113.837	-392.360	752.545	118.498	-308.307
974	4.86500	725.824	636.009	-259.222	709.150	422.869	-215.983	692.424	471.751	-174.058	765.274	574.540	-194.578	783.425	549.376	-276.025	623.818	71.980	-333.701	834.493	53.006	-371.188	775.977	46.731	-417.165	696.689	116.059	-393.406	724.307	121.101	-308.889
975	4.87000	730.209	615.050	-258.827	734.421	400.946	-216.902	713.023	447.276	-176.641	775.887	556.762	-195.290	795.798	534.192	-276.554	594.886	78.012	-333.983	804.493	52.734	-370.710	745.472	47.166	-417.366	668.049	119.114	-393.883	696.303	124.203	-309.266
976	4.87500	735.618	592.545	-258.511	761.184	379.473	-217.392	735.223	423.659	-173.075	787.578	538.244	-195.331	807.911	517.838	-276.947	566.488	85.151	-334.276	774.020	52.515	-370.559	715.247	46.966	-417.450	639.651	123.039	-394.207	668.945	128.269	-309.769
